<?xml version="1.0" encoding="UTF-8"?>
<svg xmlns="http://www.w3.org/2000/svg" xmlns:xlink="http://www.w3.org/1999/xlink" width="24pt" height="24pt" viewBox="0 0 24 24" version="1.1">
<g id="surface1">
<path style=" stroke:none;fill-rule:nonzero;fill:rgb(23.921569%,43.137255%,58.823529%);fill-opacity:1;" d="M 2.164062 0 L 21.832031 0 L 21.832031 24 L 2.164062 24 Z M 2.164062 0 "/>
<path style=" stroke:none;fill-rule:nonzero;fill:rgb(100%,100%,100%);fill-opacity:1;" d="M 8.097656 6.515625 C 7.886719 6.195312 7.984375 6.035156 8.390625 6.035156 L 9.476562 6.035156 C 9.695312 6.035156 9.882812 6.164062 10.050781 6.421875 L 11.375 8.496094 C 11.414062 8.550781 11.523438 8.726562 11.707031 9.019531 C 11.886719 9.3125 11.992188 9.59375 12.023438 9.871094 L 12.046875 9.871094 C 12.078125 9.59375 12.183594 9.3125 12.367188 9.019531 C 12.546875 8.726562 12.65625 8.550781 12.695312 8.496094 L 14.019531 6.421875 C 14.1875 6.164062 14.378906 6.035156 14.59375 6.035156 L 15.683594 6.035156 C 16.089844 6.035156 16.1875 6.195312 15.972656 6.515625 L 12.945312 11.117188 L 12.695312 14.660156 C 12.695312 14.863281 10.808594 14.21875 12.046875 13.746094 C 12.046875 15.082031 11.375 14.730469 11.128906 13.746094 L 11.128906 11.117188 L 9.476562 9.019531 Z M 8.097656 6.515625 "/>
<path style=" stroke:none;fill-rule:evenodd;fill:rgb(100%,100%,100%);fill-opacity:1;" d="M 14.085938 11.90625 C 14.085938 13.984375 13.164062 15.667969 12.03125 15.667969 C 10.894531 15.667969 9.976562 13.984375 9.976562 11.90625 C 9.976562 11.359375 10.039062 10.835938 10.15625 10.367188 C 9.933594 10.679688 9.746094 11.058594 9.605469 11.476562 C 9.25 11.171875 8.835938 10.996094 8.398438 10.996094 C 7.117188 10.996094 6.058594 12.492188 5.902344 14.429688 C 4.988281 14.980469 4.335938 16.339844 4.296875 17.941406 L 14.769531 17.941406 C 14.753906 17.46875 14.75 16.972656 14.75 16.910156 L 14.75 15.484375 C 14.75 15.363281 14.773438 15.300781 14.824219 15.300781 L 14.976562 15.300781 C 15.039062 15.300781 15.082031 15.355469 15.113281 15.472656 L 15.492188 16.910156 L 15.652344 15.484375 C 15.652344 15.363281 15.675781 15.300781 15.726562 15.300781 L 15.8125 15.101562 C 16.910156 17.003906 15.921875 16.398438 15.882812 15.300781 L 15.957031 17.5 C 15.957031 17.542969 15.953125 17.726562 15.949219 17.941406 L 19.484375 17.941406 C 19.625 17.449219 19.703125 16.902344 19.703125 16.328125 C 19.703125 14.15625 18.578125 12.398438 17.1875 12.398438 C 17.132812 12.398438 17.082031 12.398438 17.027344 12.40625 C 16.566406 11.542969 15.871094 10.996094 15.097656 10.996094 C 14.726562 10.996094 14.378906 11.121094 14.0625 11.34375 C 14.078125 11.527344 14.085938 11.714844 14.085938 11.90625 Z M 15.410156 17.941406 L 15.058594 16.613281 L 15.050781 16.613281 C 15.054688 16.710938 15.054688 16.808594 15.054688 16.910156 L 15.054688 17.941406 Z M 15.5625 17.167969 L 15.648438 17.5 L 15.65625 17.5 C 15.65625 17.453125 15.617188 17.335938 15.578125 17.214844 C 15.570312 17.199219 15.566406 17.183594 15.5625 17.167969 Z M 15.5625 17.167969 "/>
</g>
</svg>
