<svg width="277" height="338" viewBox="0 0 277 338" fill="none" xmlns="http://www.w3.org/2000/svg">
<rect width="277" height="338" fill="#3D6E96"/>
<path d="M83.5297 91.7719C80.5503 87.2573 81.9232 85 87.6484 85H102.984C106.022 85 108.709 86.8111 111.046 90.4333L129.711 119.647C130.237 120.435 131.785 122.902 134.356 127.049C136.926 131.144 138.416 135.133 138.825 139.018H139.175C139.584 135.133 141.074 131.144 143.644 127.049C146.215 122.902 147.763 120.435 148.289 119.647L166.954 90.4333C169.291 86.8111 171.978 85 175.016 85H190.352C196.077 85 197.45 87.2573 194.47 91.7719L151.794 156.578L148.289 206.449C148.289 209.336 121.737 200.26 139.175 193.587C139.175 212.383 129.711 207.475 126.206 193.587V156.578L102.984 127.049L83.5297 91.7719Z" fill="white"/>
<path fill-rule="evenodd" clip-rule="evenodd" d="M167.859 167.68C167.859 196.952 154.905 220.68 138.926 220.68C122.946 220.68 109.992 196.952 109.992 167.68C109.992 159.956 110.895 152.618 112.516 146C109.384 150.432 106.761 155.727 104.802 161.644C99.7484 157.313 93.9458 154.851 87.7748 154.851C69.7188 154.851 54.8163 175.935 52.6119 203.198C39.7704 210.971 30.5513 230.092 30 252.68H177.484C177.308 245.995 177.22 239.015 177.22 238.134V218.085C177.22 216.341 177.565 215.47 178.254 215.47H180.441C181.288 215.47 181.928 216.283 182.361 217.91L187.697 238.134L189.926 218.085C189.926 216.341 190.27 215.47 190.96 215.47L192.172 212.68C207.673 239.494 193.722 230.968 193.205 215.47L194.238 246.467C194.238 247.083 194.196 249.636 194.11 252.68H243.88C245.884 245.743 247 238.045 247 229.939C247 199.37 231.131 174.588 211.556 174.588C210.799 174.588 210.048 174.625 209.304 174.698C202.802 162.566 193.033 154.851 182.11 154.851C176.915 154.851 171.981 156.596 167.536 159.732C167.749 162.325 167.859 164.979 167.859 167.68ZM186.512 252.68L181.564 233.949H181.46C181.509 235.344 181.534 236.739 181.534 238.134V252.68H186.512ZM188.659 241.778L189.896 246.467H189.999C189.976 245.789 189.432 244.133 188.878 242.448C188.805 242.224 188.731 242 188.659 241.778Z" fill="white"/>
</svg>
